<svg width="42" height="42" viewBox="0 0 42 42" fill="none" xmlns="http://www.w3.org/2000/svg">
<path d="M28.7966 24.8085C28.7225 24.7192 28.6498 24.6299 28.5783 24.5438C27.5962 23.3558 27.002 22.6388 27.002 19.2759C27.002 17.5348 26.5855 16.1062 25.7645 15.0348C25.1591 14.2433 24.3408 13.6429 23.2623 13.1991C23.2484 13.1914 23.236 13.1813 23.2256 13.1692C22.8377 11.8701 21.7761 11 20.5788 11C19.3814 11 18.3203 11.8701 17.9323 13.1679C17.922 13.1795 17.9098 13.1893 17.8962 13.1969C15.3792 14.233 14.156 16.221 14.156 19.2746C14.156 22.6388 13.5627 23.3558 12.5797 24.5424C12.5082 24.6286 12.4355 24.7161 12.3614 24.8071C12.1699 25.038 12.0486 25.3189 12.0119 25.6165C11.9751 25.9141 12.0243 26.2161 12.1538 26.4866C12.4292 27.067 13.0163 27.4272 13.6864 27.4272H27.4761C28.1431 27.4272 28.7261 27.0674 29.0024 26.4897C29.1324 26.2191 29.1822 25.917 29.1457 25.619C29.1092 25.321 28.9881 25.0397 28.7966 24.8085ZM20.5788 31C21.2239 30.9995 21.8568 30.8244 22.4104 30.4932C22.9641 30.1621 23.4178 29.6873 23.7234 29.1192C23.7378 29.092 23.7449 29.0615 23.7441 29.0307C23.7432 28.9999 23.7344 28.9699 23.7185 28.9435C23.7026 28.9171 23.6801 28.8953 23.6533 28.8802C23.6265 28.865 23.5962 28.8571 23.5654 28.8571H17.5931C17.5622 28.857 17.5319 28.8649 17.505 28.88C17.4781 28.8951 17.4556 28.9169 17.4396 28.9433C17.4237 28.9697 17.4148 28.9998 17.4139 29.0306C17.413 29.0614 17.4202 29.0919 17.4346 29.1192C17.7402 29.6872 18.1938 30.162 18.7473 30.4931C19.3009 30.8242 19.9337 30.9994 20.5788 31Z" fill="#5F5F5F"/>
</svg>
