<svg width="15" height="18" viewBox="0 0 15 18" fill="none" xmlns="http://www.w3.org/2000/svg">
<path fill-rule="evenodd" clip-rule="evenodd" d="M3.0744 0.9C2.82706 1.46784 2.6996 2.08063 2.7 2.7C2.7 3.17739 2.88964 3.63523 3.22721 3.97279C3.56477 4.31036 4.02261 4.5 4.5 4.5H9.9C10.3774 4.5 10.8352 4.31036 11.1728 3.97279C11.5104 3.63523 11.7 3.17739 11.7 2.7C11.7 2.0601 11.5668 1.4508 11.3256 0.9H12.6C13.0774 0.9 13.5352 1.08964 13.8728 1.42721C14.2104 1.76477 14.4 2.22261 14.4 2.7V16.2C14.4 16.6774 14.2104 17.1352 13.8728 17.4728C13.5352 17.8104 13.0774 18 12.6 18H1.8C1.32261 18 0.864773 17.8104 0.527208 17.4728C0.189642 17.1352 0 16.6774 0 16.2V2.7C0 2.22261 0.189642 1.76477 0.527208 1.42721C0.864773 1.08964 1.32261 0.9 1.8 0.9H3.0744ZM7.2 10.8H4.5C4.2613 10.8 4.03239 10.8948 3.8636 11.0636C3.69482 11.2324 3.6 11.4613 3.6 11.7C3.6 11.9387 3.69482 12.1676 3.8636 12.3364C4.03239 12.5052 4.2613 12.6 4.5 12.6H7.2C7.43869 12.6 7.66761 12.5052 7.8364 12.3364C8.00518 12.1676 8.1 11.9387 8.1 11.7C8.1 11.4613 8.00518 11.2324 7.8364 11.0636C7.66761 10.8948 7.43869 10.8 7.2 10.8ZM9.9 7.2H4.5C4.27061 7.20025 4.04997 7.28809 3.88317 7.44556C3.71637 7.60304 3.61599 7.81826 3.60254 8.04726C3.5891 8.27625 3.66361 8.50174 3.81084 8.67765C3.95807 8.85356 4.16691 8.96661 4.3947 8.9937L4.5 9H9.9C10.1387 9 10.3676 8.90518 10.5364 8.7364C10.7052 8.56761 10.8 8.33869 10.8 8.1C10.8 7.8613 10.7052 7.63239 10.5364 7.4636C10.3676 7.29482 10.1387 7.2 9.9 7.2ZM7.2 0C7.57987 8.60765e-06 7.95546 0.0801753 8.30224 0.235261C8.64901 0.390347 8.95915 0.616861 9.2124 0.9C9.5976 1.3302 9.846 1.8837 9.8919 2.4948L9.9 2.7H4.5C4.5 2.0475 4.7313 1.449 5.1165 0.9828L5.1876 0.9C5.6826 0.3474 6.4008 0 7.2 0Z" fill="#5F5F5F"/>
</svg>
